<svg xmlns="http://www.w3.org/2000/svg" viewBox="0 0 512 512" role="img" aria-label="Wallpaper Studio">
  <defs><radialGradient id="ic-glow" cx="50%" cy="46%" r="48%"><stop offset="0%" stop-color="#9ad4c2" stop-opacity="0.26"/><stop offset="60%" stop-color="#9ad4c2" stop-opacity="0.05"/><stop offset="100%" stop-color="#9ad4c2" stop-opacity="0"/></radialGradient><radialGradient id="ic-vig" cx="50%" cy="50%" r="62%"><stop offset="55%" stop-color="#0a0e12" stop-opacity="0"/><stop offset="100%" stop-color="#06080b" stop-opacity="0.92"/></radialGradient><radialGradient id="ic-aglow" cx="50%" cy="50%" r="50%"><stop offset="0%" stop-color="#9ad4c2" stop-opacity="0.55"/><stop offset="60%" stop-color="#9ad4c2" stop-opacity="0.12"/><stop offset="100%" stop-color="#9ad4c2" stop-opacity="0"/></radialGradient></defs>
  <rect x="0" y="0" width="512" height="512" fill="#0a0e12"/>
  <g stroke="#0a0e12" stroke-width="2" stroke-linejoin="round"><polygon points="567.8,-140.0 630.1,-104.0 567.8,-68.0 505.4,-104.0" fill="#397468"/><polygon points="567.8,-68.0 567.8,4.0 505.4,-32.0 505.4,-104.0" fill="#12211e"/><polygon points="630.1,-104.0 630.1,-32.0 567.8,4.0 567.8,-68.0" fill="#1d3a33"/><path d="m771.67168 798 381.00032-217c-7.0001-21-12.0001-43-12.0001-67 0-92 67.0001-168 155.0001-184v-330h64v330c88 16 155 92 155 184 0 24-5 46-13 67l382 217c14-16 31-30 50-42 80-46 180-26 237 42l286-165 32 56-286 165c31 84-2 180-82 226-18 10-36 17-55 21v442c19 4 37 11 55 21 80 46 113 142 82 226l286 165-32 56-286-165c-57 68-157 88-237 42-19-12-36-26-50-42-127 72-254 145-382 217 8 21 13 43 13 67 0 92-67 168-155 184v330h-64v-330c-88-16-155.0001-92-155.0001-184 0-24 5-46 12.0001-67l-381.00032-217c-14 16-31 30-50 42-80 46-180 26-237-42l-285.99999 165-32-56 285.99999-165c-31-84 2-180 82-226 18-10 36-17 55-21v-442c-19-4-37-11-55-21-80-46-113-142-82-226l-285.99999-165 32-56 285.99999 165c57-68 157-88 237-42 19 12 36 26 50 42zm1080.00032 992c-18-50-15-108 14-157 30-52 81-84 136-92v-438c-55-8-106-40-136-92-29-49-32-107-14-157l-382-218c-35 40-85 65-142 65s-107-25-142-65l-382.00032 218c18 50 15 108-14 157-30 52-81 84-136 92v438c55 8 106 40 136 92 29 49 32 107 14 157l382.00032 218c35-40 85-65 142-65s107 25 142 65z" transform="matrix(0.01462,0.00844,-0.01462,0.00844,567.8,-126.32)" fill="#173c35"/><polygon points="567.8,508.0 630.1,544.0 567.8,580.0 505.4,544.0" fill="#397468"/><polygon points="567.8,580.0 567.8,652.0 505.4,616.0 505.4,544.0" fill="#12211e"/><polygon points="630.1,544.0 630.1,616.0 567.8,652.0 567.8,580.0" fill="#1d3a33"/><path d="m771.67168 798 381.00032-217c-7.0001-21-12.0001-43-12.0001-67 0-92 67.0001-168 155.0001-184v-330h64v330c88 16 155 92 155 184 0 24-5 46-13 67l382 217c14-16 31-30 50-42 80-46 180-26 237 42l286-165 32 56-286 165c31 84-2 180-82 226-18 10-36 17-55 21v442c19 4 37 11 55 21 80 46 113 142 82 226l286 165-32 56-286-165c-57 68-157 88-237 42-19-12-36-26-50-42-127 72-254 145-382 217 8 21 13 43 13 67 0 92-67 168-155 184v330h-64v-330c-88-16-155.0001-92-155.0001-184 0-24 5-46 12.0001-67l-381.00032-217c-14 16-31 30-50 42-80 46-180 26-237-42l-285.99999 165-32-56 285.99999-165c-31-84 2-180 82-226 18-10 36-17 55-21v-442c-19-4-37-11-55-21-80-46-113-142-82-226l-285.99999-165 32-56 285.99999 165c57-68 157-88 237-42 19 12 36 26 50 42zm1080.00032 992c-18-50-15-108 14-157 30-52 81-84 136-92v-438c-55-8-106-40-136-92-29-49-32-107-14-157l-382-218c-35 40-85 65-142 65s-107-25-142-65l-382.00032 218c18 50 15 108-14 157-30 52-81 84-136 92v438c55 8 106 40 136 92 29 49 32 107 14 157l382.00032 218c35-40 85-65 142-65s107 25 142 65z" transform="matrix(0.01462,0.00844,-0.01462,0.00844,567.8,521.68)" fill="#173c35"/><polygon points="-55.8,-140.0 6.6,-104.0 -55.8,-68.0 -118.1,-104.0" fill="#397468"/><polygon points="-55.8,-68.0 -55.8,4.0 -118.1,-32.0 -118.1,-104.0" fill="#12211e"/><polygon points="6.6,-104.0 6.6,-32.0 -55.8,4.0 -55.8,-68.0" fill="#1d3a33"/><path d="m771.67168 798 381.00032-217c-7.0001-21-12.0001-43-12.0001-67 0-92 67.0001-168 155.0001-184v-330h64v330c88 16 155 92 155 184 0 24-5 46-13 67l382 217c14-16 31-30 50-42 80-46 180-26 237 42l286-165 32 56-286 165c31 84-2 180-82 226-18 10-36 17-55 21v442c19 4 37 11 55 21 80 46 113 142 82 226l286 165-32 56-286-165c-57 68-157 88-237 42-19-12-36-26-50-42-127 72-254 145-382 217 8 21 13 43 13 67 0 92-67 168-155 184v330h-64v-330c-88-16-155.0001-92-155.0001-184 0-24 5-46 12.0001-67l-381.00032-217c-14 16-31 30-50 42-80 46-180 26-237-42l-285.99999 165-32-56 285.99999-165c-31-84 2-180 82-226 18-10 36-17 55-21v-442c-19-4-37-11-55-21-80-46-113-142-82-226l-285.99999-165 32-56 285.99999 165c57-68 157-88 237-42 19 12 36 26 50 42zm1080.00032 992c-18-50-15-108 14-157 30-52 81-84 136-92v-438c-55-8-106-40-136-92-29-49-32-107-14-157l-382-218c-35 40-85 65-142 65s-107-25-142-65l-382.00032 218c18 50 15 108-14 157-30 52-81 84-136 92v438c55 8 106 40 136 92 29 49 32 107 14 157l382.00032 218c35-40 85-65 142-65s107 25 142 65z" transform="matrix(0.01462,0.00844,-0.01462,0.00844,-55.8,-126.32)" fill="#173c35"/><polygon points="-55.8,508.0 6.6,544.0 -55.8,580.0 -118.1,544.0" fill="#397468"/><polygon points="-55.8,580.0 -55.8,652.0 -118.1,616.0 -118.1,544.0" fill="#12211e"/><polygon points="6.6,544.0 6.6,616.0 -55.8,652.0 -55.8,580.0" fill="#1d3a33"/><path d="m771.67168 798 381.00032-217c-7.0001-21-12.0001-43-12.0001-67 0-92 67.0001-168 155.0001-184v-330h64v330c88 16 155 92 155 184 0 24-5 46-13 67l382 217c14-16 31-30 50-42 80-46 180-26 237 42l286-165 32 56-286 165c31 84-2 180-82 226-18 10-36 17-55 21v442c19 4 37 11 55 21 80 46 113 142 82 226l286 165-32 56-286-165c-57 68-157 88-237 42-19-12-36-26-50-42-127 72-254 145-382 217 8 21 13 43 13 67 0 92-67 168-155 184v330h-64v-330c-88-16-155.0001-92-155.0001-184 0-24 5-46 12.0001-67l-381.00032-217c-14 16-31 30-50 42-80 46-180 26-237-42l-285.99999 165-32-56 285.99999-165c-31-84 2-180 82-226 18-10 36-17 55-21v-442c-19-4-37-11-55-21-80-46-113-142-82-226l-285.99999-165 32-56 285.99999 165c57-68 157-88 237-42 19 12 36 26 50 42zm1080.00032 992c-18-50-15-108 14-157 30-52 81-84 136-92v-438c-55-8-106-40-136-92-29-49-32-107-14-157l-382-218c-35 40-85 65-142 65s-107-25-142-65l-382.00032 218c18 50 15 108-14 157-30 52-81 84-136 92v438c55 8 106 40 136 92 29 49 32 107 14 157l382.00032 218c35-40 85-65 142-65s107 25 142 65z" transform="matrix(0.01462,0.00844,-0.01462,0.00844,-55.8,521.68)" fill="#173c35"/><polygon points="68.9,-140.0 131.3,-104.0 68.9,-68.0 6.6,-104.0" fill="#397468"/><polygon points="68.9,-68.0 68.9,4.0 6.6,-32.0 6.6,-104.0" fill="#12211e"/><polygon points="131.3,-104.0 131.3,-32.0 68.9,4.0 68.9,-68.0" fill="#1d3a33"/><path d="m771.67168 798 381.00032-217c-7.0001-21-12.0001-43-12.0001-67 0-92 67.0001-168 155.0001-184v-330h64v330c88 16 155 92 155 184 0 24-5 46-13 67l382 217c14-16 31-30 50-42 80-46 180-26 237 42l286-165 32 56-286 165c31 84-2 180-82 226-18 10-36 17-55 21v442c19 4 37 11 55 21 80 46 113 142 82 226l286 165-32 56-286-165c-57 68-157 88-237 42-19-12-36-26-50-42-127 72-254 145-382 217 8 21 13 43 13 67 0 92-67 168-155 184v330h-64v-330c-88-16-155.0001-92-155.0001-184 0-24 5-46 12.0001-67l-381.00032-217c-14 16-31 30-50 42-80 46-180 26-237-42l-285.99999 165-32-56 285.99999-165c-31-84 2-180 82-226 18-10 36-17 55-21v-442c-19-4-37-11-55-21-80-46-113-142-82-226l-285.99999-165 32-56 285.99999 165c57-68 157-88 237-42 19 12 36 26 50 42zm1080.00032 992c-18-50-15-108 14-157 30-52 81-84 136-92v-438c-55-8-106-40-136-92-29-49-32-107-14-157l-382-218c-35 40-85 65-142 65s-107-25-142-65l-382.00032 218c18 50 15 108-14 157-30 52-81 84-136 92v438c55 8 106 40 136 92 29 49 32 107 14 157l382.00032 218c35-40 85-65 142-65s107 25 142 65z" transform="matrix(0.01462,0.00844,-0.01462,0.00844,68.9,-126.32)" fill="#173c35"/><polygon points="443.1,-140.0 505.4,-104.0 443.1,-68.0 380.7,-104.0" fill="#397468"/><polygon points="443.1,-68.0 443.1,4.0 380.7,-32.0 380.7,-104.0" fill="#12211e"/><polygon points="505.4,-104.0 505.4,-32.0 443.1,4.0 443.1,-68.0" fill="#1d3a33"/><path d="m771.67168 798 381.00032-217c-7.0001-21-12.0001-43-12.0001-67 0-92 67.0001-168 155.0001-184v-330h64v330c88 16 155 92 155 184 0 24-5 46-13 67l382 217c14-16 31-30 50-42 80-46 180-26 237 42l286-165 32 56-286 165c31 84-2 180-82 226-18 10-36 17-55 21v442c19 4 37 11 55 21 80 46 113 142 82 226l286 165-32 56-286-165c-57 68-157 88-237 42-19-12-36-26-50-42-127 72-254 145-382 217 8 21 13 43 13 67 0 92-67 168-155 184v330h-64v-330c-88-16-155.0001-92-155.0001-184 0-24 5-46 12.0001-67l-381.00032-217c-14 16-31 30-50 42-80 46-180 26-237-42l-285.99999 165-32-56 285.99999-165c-31-84 2-180 82-226 18-10 36-17 55-21v-442c-19-4-37-11-55-21-80-46-113-142-82-226l-285.99999-165 32-56 285.99999 165c57-68 157-88 237-42 19 12 36 26 50 42zm1080.00032 992c-18-50-15-108 14-157 30-52 81-84 136-92v-438c-55-8-106-40-136-92-29-49-32-107-14-157l-382-218c-35 40-85 65-142 65s-107-25-142-65l-382.00032 218c18 50 15 108-14 157-30 52-81 84-136 92v438c55 8 106 40 136 92 29 49 32 107 14 157l382.00032 218c35-40 85-65 142-65s107 25 142 65z" transform="matrix(0.01462,0.00844,-0.01462,0.00844,443.1,-126.32)" fill="#173c35"/><polygon points="68.9,508.0 131.3,544.0 68.9,580.0 6.6,544.0" fill="#397468"/><polygon points="68.9,580.0 68.9,652.0 6.6,616.0 6.6,544.0" fill="#12211e"/><polygon points="131.3,544.0 131.3,616.0 68.9,652.0 68.9,580.0" fill="#1d3a33"/><path d="m771.67168 798 381.00032-217c-7.0001-21-12.0001-43-12.0001-67 0-92 67.0001-168 155.0001-184v-330h64v330c88 16 155 92 155 184 0 24-5 46-13 67l382 217c14-16 31-30 50-42 80-46 180-26 237 42l286-165 32 56-286 165c31 84-2 180-82 226-18 10-36 17-55 21v442c19 4 37 11 55 21 80 46 113 142 82 226l286 165-32 56-286-165c-57 68-157 88-237 42-19-12-36-26-50-42-127 72-254 145-382 217 8 21 13 43 13 67 0 92-67 168-155 184v330h-64v-330c-88-16-155.0001-92-155.0001-184 0-24 5-46 12.0001-67l-381.00032-217c-14 16-31 30-50 42-80 46-180 26-237-42l-285.99999 165-32-56 285.99999-165c-31-84 2-180 82-226 18-10 36-17 55-21v-442c-19-4-37-11-55-21-80-46-113-142-82-226l-285.99999-165 32-56 285.99999 165c57-68 157-88 237-42 19 12 36 26 50 42zm1080.00032 992c-18-50-15-108 14-157 30-52 81-84 136-92v-438c-55-8-106-40-136-92-29-49-32-107-14-157l-382-218c-35 40-85 65-142 65s-107-25-142-65l-382.00032 218c18 50 15 108-14 157-30 52-81 84-136 92v438c55 8 106 40 136 92 29 49 32 107 14 157l382.00032 218c35-40 85-65 142-65s107 25 142 65z" transform="matrix(0.01462,0.00844,-0.01462,0.00844,68.9,521.68)" fill="#173c35"/><polygon points="443.1,508.0 505.4,544.0 443.1,580.0 380.7,544.0" fill="#397468"/><polygon points="443.1,580.0 443.1,652.0 380.7,616.0 380.7,544.0" fill="#12211e"/><polygon points="505.4,544.0 505.4,616.0 443.1,652.0 443.1,580.0" fill="#1d3a33"/><path d="m771.67168 798 381.00032-217c-7.0001-21-12.0001-43-12.0001-67 0-92 67.0001-168 155.0001-184v-330h64v330c88 16 155 92 155 184 0 24-5 46-13 67l382 217c14-16 31-30 50-42 80-46 180-26 237 42l286-165 32 56-286 165c31 84-2 180-82 226-18 10-36 17-55 21v442c19 4 37 11 55 21 80 46 113 142 82 226l286 165-32 56-286-165c-57 68-157 88-237 42-19-12-36-26-50-42-127 72-254 145-382 217 8 21 13 43 13 67 0 92-67 168-155 184v330h-64v-330c-88-16-155.0001-92-155.0001-184 0-24 5-46 12.0001-67l-381.00032-217c-14 16-31 30-50 42-80 46-180 26-237-42l-285.99999 165-32-56 285.99999-165c-31-84 2-180 82-226 18-10 36-17 55-21v-442c-19-4-37-11-55-21-80-46-113-142-82-226l-285.99999-165 32-56 285.99999 165c57-68 157-88 237-42 19 12 36 26 50 42zm1080.00032 992c-18-50-15-108 14-157 30-52 81-84 136-92v-438c-55-8-106-40-136-92-29-49-32-107-14-157l-382-218c-35 40-85 65-142 65s-107-25-142-65l-382.00032 218c18 50 15 108-14 157-30 52-81 84-136 92v438c55 8 106 40 136 92 29 49 32 107 14 157l382.00032 218c35-40 85-65 142-65s107 25 142 65z" transform="matrix(0.01462,0.00844,-0.01462,0.00844,443.1,521.68)" fill="#173c35"/><polygon points="567.8,76.0 630.1,112.0 567.8,148.0 505.4,112.0" fill="#397468"/><polygon points="567.8,148.0 567.8,220.0 505.4,184.0 505.4,112.0" fill="#12211e"/><polygon points="630.1,112.0 630.1,184.0 567.8,220.0 567.8,148.0" fill="#1d3a33"/><path d="m771.67168 798 381.00032-217c-7.0001-21-12.0001-43-12.0001-67 0-92 67.0001-168 155.0001-184v-330h64v330c88 16 155 92 155 184 0 24-5 46-13 67l382 217c14-16 31-30 50-42 80-46 180-26 237 42l286-165 32 56-286 165c31 84-2 180-82 226-18 10-36 17-55 21v442c19 4 37 11 55 21 80 46 113 142 82 226l286 165-32 56-286-165c-57 68-157 88-237 42-19-12-36-26-50-42-127 72-254 145-382 217 8 21 13 43 13 67 0 92-67 168-155 184v330h-64v-330c-88-16-155.0001-92-155.0001-184 0-24 5-46 12.0001-67l-381.00032-217c-14 16-31 30-50 42-80 46-180 26-237-42l-285.99999 165-32-56 285.99999-165c-31-84 2-180 82-226 18-10 36-17 55-21v-442c-19-4-37-11-55-21-80-46-113-142-82-226l-285.99999-165 32-56 285.99999 165c57-68 157-88 237-42 19 12 36 26 50 42zm1080.00032 992c-18-50-15-108 14-157 30-52 81-84 136-92v-438c-55-8-106-40-136-92-29-49-32-107-14-157l-382-218c-35 40-85 65-142 65s-107-25-142-65l-382.00032 218c18 50 15 108-14 157-30 52-81 84-136 92v438c55 8 106 40 136 92 29 49 32 107 14 157l382.00032 218c35-40 85-65 142-65s107 25 142 65z" transform="matrix(0.01462,0.00844,-0.01462,0.00844,567.8,89.68)" fill="#173c35"/><polygon points="567.8,292.0 630.1,328.0 567.8,364.0 505.4,328.0" fill="#397468"/><polygon points="567.8,364.0 567.8,436.0 505.4,400.0 505.4,328.0" fill="#12211e"/><polygon points="630.1,328.0 630.1,400.0 567.8,436.0 567.8,364.0" fill="#1d3a33"/><path d="m771.67168 798 381.00032-217c-7.0001-21-12.0001-43-12.0001-67 0-92 67.0001-168 155.0001-184v-330h64v330c88 16 155 92 155 184 0 24-5 46-13 67l382 217c14-16 31-30 50-42 80-46 180-26 237 42l286-165 32 56-286 165c31 84-2 180-82 226-18 10-36 17-55 21v442c19 4 37 11 55 21 80 46 113 142 82 226l286 165-32 56-286-165c-57 68-157 88-237 42-19-12-36-26-50-42-127 72-254 145-382 217 8 21 13 43 13 67 0 92-67 168-155 184v330h-64v-330c-88-16-155.0001-92-155.0001-184 0-24 5-46 12.0001-67l-381.00032-217c-14 16-31 30-50 42-80 46-180 26-237-42l-285.99999 165-32-56 285.99999-165c-31-84 2-180 82-226 18-10 36-17 55-21v-442c-19-4-37-11-55-21-80-46-113-142-82-226l-285.99999-165 32-56 285.99999 165c57-68 157-88 237-42 19 12 36 26 50 42zm1080.00032 992c-18-50-15-108 14-157 30-52 81-84 136-92v-438c-55-8-106-40-136-92-29-49-32-107-14-157l-382-218c-35 40-85 65-142 65s-107-25-142-65l-382.00032 218c18 50 15 108-14 157-30 52-81 84-136 92v438c55 8 106 40 136 92 29 49 32 107 14 157l382.00032 218c35-40 85-65 142-65s107 25 142 65z" transform="matrix(0.01462,0.00844,-0.01462,0.00844,567.8,305.68)" fill="#173c35"/><polygon points="193.6,-140.0 256.0,-104.0 193.6,-68.0 131.3,-104.0" fill="#397468"/><polygon points="193.6,-68.0 193.6,4.0 131.3,-32.0 131.3,-104.0" fill="#12211e"/><polygon points="256.0,-104.0 256.0,-32.0 193.6,4.0 193.6,-68.0" fill="#1d3a33"/><path d="m771.67168 798 381.00032-217c-7.0001-21-12.0001-43-12.0001-67 0-92 67.0001-168 155.0001-184v-330h64v330c88 16 155 92 155 184 0 24-5 46-13 67l382 217c14-16 31-30 50-42 80-46 180-26 237 42l286-165 32 56-286 165c31 84-2 180-82 226-18 10-36 17-55 21v442c19 4 37 11 55 21 80 46 113 142 82 226l286 165-32 56-286-165c-57 68-157 88-237 42-19-12-36-26-50-42-127 72-254 145-382 217 8 21 13 43 13 67 0 92-67 168-155 184v330h-64v-330c-88-16-155.0001-92-155.0001-184 0-24 5-46 12.0001-67l-381.00032-217c-14 16-31 30-50 42-80 46-180 26-237-42l-285.99999 165-32-56 285.99999-165c-31-84 2-180 82-226 18-10 36-17 55-21v-442c-19-4-37-11-55-21-80-46-113-142-82-226l-285.99999-165 32-56 285.99999 165c57-68 157-88 237-42 19 12 36 26 50 42zm1080.00032 992c-18-50-15-108 14-157 30-52 81-84 136-92v-438c-55-8-106-40-136-92-29-49-32-107-14-157l-382-218c-35 40-85 65-142 65s-107-25-142-65l-382.00032 218c18 50 15 108-14 157-30 52-81 84-136 92v438c55 8 106 40 136 92 29 49 32 107 14 157l382.00032 218c35-40 85-65 142-65s107 25 142 65z" transform="matrix(0.01462,0.00844,-0.01462,0.00844,193.6,-126.32)" fill="#173c35"/><polygon points="318.4,-140.0 380.7,-104.0 318.4,-68.0 256.0,-104.0" fill="#397468"/><polygon points="318.4,-68.0 318.4,4.0 256.0,-32.0 256.0,-104.0" fill="#12211e"/><polygon points="380.7,-104.0 380.7,-32.0 318.4,4.0 318.4,-68.0" fill="#1d3a33"/><path d="m771.67168 798 381.00032-217c-7.0001-21-12.0001-43-12.0001-67 0-92 67.0001-168 155.0001-184v-330h64v330c88 16 155 92 155 184 0 24-5 46-13 67l382 217c14-16 31-30 50-42 80-46 180-26 237 42l286-165 32 56-286 165c31 84-2 180-82 226-18 10-36 17-55 21v442c19 4 37 11 55 21 80 46 113 142 82 226l286 165-32 56-286-165c-57 68-157 88-237 42-19-12-36-26-50-42-127 72-254 145-382 217 8 21 13 43 13 67 0 92-67 168-155 184v330h-64v-330c-88-16-155.0001-92-155.0001-184 0-24 5-46 12.0001-67l-381.00032-217c-14 16-31 30-50 42-80 46-180 26-237-42l-285.99999 165-32-56 285.99999-165c-31-84 2-180 82-226 18-10 36-17 55-21v-442c-19-4-37-11-55-21-80-46-113-142-82-226l-285.99999-165 32-56 285.99999 165c57-68 157-88 237-42 19 12 36 26 50 42zm1080.00032 992c-18-50-15-108 14-157 30-52 81-84 136-92v-438c-55-8-106-40-136-92-29-49-32-107-14-157l-382-218c-35 40-85 65-142 65s-107-25-142-65l-382.00032 218c18 50 15 108-14 157-30 52-81 84-136 92v438c55 8 106 40 136 92 29 49 32 107 14 157l382.00032 218c35-40 85-65 142-65s107 25 142 65z" transform="matrix(0.01462,0.00844,-0.01462,0.00844,318.4,-126.32)" fill="#173c35"/><polygon points="6.6,-32.0 68.9,4.0 6.6,40.0 -55.8,4.0" fill="#397468"/><polygon points="6.6,40.0 6.6,112.0 -55.8,76.0 -55.8,4.0" fill="#12211e"/><polygon points="68.9,4.0 68.9,76.0 6.6,112.0 6.6,40.0" fill="#1d3a33"/><path d="m771.67168 798 381.00032-217c-7.0001-21-12.0001-43-12.0001-67 0-92 67.0001-168 155.0001-184v-330h64v330c88 16 155 92 155 184 0 24-5 46-13 67l382 217c14-16 31-30 50-42 80-46 180-26 237 42l286-165 32 56-286 165c31 84-2 180-82 226-18 10-36 17-55 21v442c19 4 37 11 55 21 80 46 113 142 82 226l286 165-32 56-286-165c-57 68-157 88-237 42-19-12-36-26-50-42-127 72-254 145-382 217 8 21 13 43 13 67 0 92-67 168-155 184v330h-64v-330c-88-16-155.0001-92-155.0001-184 0-24 5-46 12.0001-67l-381.00032-217c-14 16-31 30-50 42-80 46-180 26-237-42l-285.99999 165-32-56 285.99999-165c-31-84 2-180 82-226 18-10 36-17 55-21v-442c-19-4-37-11-55-21-80-46-113-142-82-226l-285.99999-165 32-56 285.99999 165c57-68 157-88 237-42 19 12 36 26 50 42zm1080.00032 992c-18-50-15-108 14-157 30-52 81-84 136-92v-438c-55-8-106-40-136-92-29-49-32-107-14-157l-382-218c-35 40-85 65-142 65s-107-25-142-65l-382.00032 218c18 50 15 108-14 157-30 52-81 84-136 92v438c55 8 106 40 136 92 29 49 32 107 14 157l382.00032 218c35-40 85-65 142-65s107 25 142 65z" transform="matrix(0.01462,0.00844,-0.01462,0.00844,6.6,-18.32)" fill="#173c35"/><polygon points="505.4,-32.0 567.8,4.0 505.4,40.0 443.1,4.0" fill="#397468"/><polygon points="505.4,40.0 505.4,112.0 443.1,76.0 443.1,4.0" fill="#12211e"/><polygon points="567.8,4.0 567.8,76.0 505.4,112.0 505.4,40.0" fill="#1d3a33"/><path d="m771.67168 798 381.00032-217c-7.0001-21-12.0001-43-12.0001-67 0-92 67.0001-168 155.0001-184v-330h64v330c88 16 155 92 155 184 0 24-5 46-13 67l382 217c14-16 31-30 50-42 80-46 180-26 237 42l286-165 32 56-286 165c31 84-2 180-82 226-18 10-36 17-55 21v442c19 4 37 11 55 21 80 46 113 142 82 226l286 165-32 56-286-165c-57 68-157 88-237 42-19-12-36-26-50-42-127 72-254 145-382 217 8 21 13 43 13 67 0 92-67 168-155 184v330h-64v-330c-88-16-155.0001-92-155.0001-184 0-24 5-46 12.0001-67l-381.00032-217c-14 16-31 30-50 42-80 46-180 26-237-42l-285.99999 165-32-56 285.99999-165c-31-84 2-180 82-226 18-10 36-17 55-21v-442c-19-4-37-11-55-21-80-46-113-142-82-226l-285.99999-165 32-56 285.99999 165c57-68 157-88 237-42 19 12 36 26 50 42zm1080.00032 992c-18-50-15-108 14-157 30-52 81-84 136-92v-438c-55-8-106-40-136-92-29-49-32-107-14-157l-382-218c-35 40-85 65-142 65s-107-25-142-65l-382.00032 218c18 50 15 108-14 157-30 52-81 84-136 92v438c55 8 106 40 136 92 29 49 32 107 14 157l382.00032 218c35-40 85-65 142-65s107 25 142 65z" transform="matrix(0.01462,0.00844,-0.01462,0.00844,505.4,-18.32)" fill="#173c35"/><polygon points="6.6,400.0 68.9,436.0 6.6,472.0 -55.8,436.0" fill="#397468"/><polygon points="6.6,472.0 6.6,544.0 -55.8,508.0 -55.8,436.0" fill="#12211e"/><polygon points="68.9,436.0 68.9,508.0 6.6,544.0 6.6,472.0" fill="#1d3a33"/><path d="m771.67168 798 381.00032-217c-7.0001-21-12.0001-43-12.0001-67 0-92 67.0001-168 155.0001-184v-330h64v330c88 16 155 92 155 184 0 24-5 46-13 67l382 217c14-16 31-30 50-42 80-46 180-26 237 42l286-165 32 56-286 165c31 84-2 180-82 226-18 10-36 17-55 21v442c19 4 37 11 55 21 80 46 113 142 82 226l286 165-32 56-286-165c-57 68-157 88-237 42-19-12-36-26-50-42-127 72-254 145-382 217 8 21 13 43 13 67 0 92-67 168-155 184v330h-64v-330c-88-16-155.0001-92-155.0001-184 0-24 5-46 12.0001-67l-381.00032-217c-14 16-31 30-50 42-80 46-180 26-237-42l-285.99999 165-32-56 285.99999-165c-31-84 2-180 82-226 18-10 36-17 55-21v-442c-19-4-37-11-55-21-80-46-113-142-82-226l-285.99999-165 32-56 285.99999 165c57-68 157-88 237-42 19 12 36 26 50 42zm1080.00032 992c-18-50-15-108 14-157 30-52 81-84 136-92v-438c-55-8-106-40-136-92-29-49-32-107-14-157l-382-218c-35 40-85 65-142 65s-107-25-142-65l-382.00032 218c18 50 15 108-14 157-30 52-81 84-136 92v438c55 8 106 40 136 92 29 49 32 107 14 157l382.00032 218c35-40 85-65 142-65s107 25 142 65z" transform="matrix(0.01462,0.00844,-0.01462,0.00844,6.6,413.68)" fill="#173c35"/><polygon points="505.4,400.0 567.8,436.0 505.4,472.0 443.1,436.0" fill="#397468"/><polygon points="505.4,472.0 505.4,544.0 443.1,508.0 443.1,436.0" fill="#12211e"/><polygon points="567.8,436.0 567.8,508.0 505.4,544.0 505.4,472.0" fill="#1d3a33"/><path d="m771.67168 798 381.00032-217c-7.0001-21-12.0001-43-12.0001-67 0-92 67.0001-168 155.0001-184v-330h64v330c88 16 155 92 155 184 0 24-5 46-13 67l382 217c14-16 31-30 50-42 80-46 180-26 237 42l286-165 32 56-286 165c31 84-2 180-82 226-18 10-36 17-55 21v442c19 4 37 11 55 21 80 46 113 142 82 226l286 165-32 56-286-165c-57 68-157 88-237 42-19-12-36-26-50-42-127 72-254 145-382 217 8 21 13 43 13 67 0 92-67 168-155 184v330h-64v-330c-88-16-155.0001-92-155.0001-184 0-24 5-46 12.0001-67l-381.00032-217c-14 16-31 30-50 42-80 46-180 26-237-42l-285.99999 165-32-56 285.99999-165c-31-84 2-180 82-226 18-10 36-17 55-21v-442c-19-4-37-11-55-21-80-46-113-142-82-226l-285.99999-165 32-56 285.99999 165c57-68 157-88 237-42 19 12 36 26 50 42zm1080.00032 992c-18-50-15-108 14-157 30-52 81-84 136-92v-438c-55-8-106-40-136-92-29-49-32-107-14-157l-382-218c-35 40-85 65-142 65s-107-25-142-65l-382.00032 218c18 50 15 108-14 157-30 52-81 84-136 92v438c55 8 106 40 136 92 29 49 32 107 14 157l382.00032 218c35-40 85-65 142-65s107 25 142 65z" transform="matrix(0.01462,0.00844,-0.01462,0.00844,505.4,413.68)" fill="#173c35"/><polygon points="193.6,508.0 256.0,544.0 193.6,580.0 131.3,544.0" fill="#397468"/><polygon points="193.6,580.0 193.6,652.0 131.3,616.0 131.3,544.0" fill="#12211e"/><polygon points="256.0,544.0 256.0,616.0 193.6,652.0 193.6,580.0" fill="#1d3a33"/><path d="m771.67168 798 381.00032-217c-7.0001-21-12.0001-43-12.0001-67 0-92 67.0001-168 155.0001-184v-330h64v330c88 16 155 92 155 184 0 24-5 46-13 67l382 217c14-16 31-30 50-42 80-46 180-26 237 42l286-165 32 56-286 165c31 84-2 180-82 226-18 10-36 17-55 21v442c19 4 37 11 55 21 80 46 113 142 82 226l286 165-32 56-286-165c-57 68-157 88-237 42-19-12-36-26-50-42-127 72-254 145-382 217 8 21 13 43 13 67 0 92-67 168-155 184v330h-64v-330c-88-16-155.0001-92-155.0001-184 0-24 5-46 12.0001-67l-381.00032-217c-14 16-31 30-50 42-80 46-180 26-237-42l-285.99999 165-32-56 285.99999-165c-31-84 2-180 82-226 18-10 36-17 55-21v-442c-19-4-37-11-55-21-80-46-113-142-82-226l-285.99999-165 32-56 285.99999 165c57-68 157-88 237-42 19 12 36 26 50 42zm1080.00032 992c-18-50-15-108 14-157 30-52 81-84 136-92v-438c-55-8-106-40-136-92-29-49-32-107-14-157l-382-218c-35 40-85 65-142 65s-107-25-142-65l-382.00032 218c18 50 15 108-14 157-30 52-81 84-136 92v438c55 8 106 40 136 92 29 49 32 107 14 157l382.00032 218c35-40 85-65 142-65s107 25 142 65z" transform="matrix(0.01462,0.00844,-0.01462,0.00844,193.6,521.68)" fill="#173c35"/><polygon points="318.4,508.0 380.7,544.0 318.4,580.0 256.0,544.0" fill="#397468"/><polygon points="318.4,580.0 318.4,652.0 256.0,616.0 256.0,544.0" fill="#12211e"/><polygon points="380.7,544.0 380.7,616.0 318.4,652.0 318.4,580.0" fill="#1d3a33"/><path d="m771.67168 798 381.00032-217c-7.0001-21-12.0001-43-12.0001-67 0-92 67.0001-168 155.0001-184v-330h64v330c88 16 155 92 155 184 0 24-5 46-13 67l382 217c14-16 31-30 50-42 80-46 180-26 237 42l286-165 32 56-286 165c31 84-2 180-82 226-18 10-36 17-55 21v442c19 4 37 11 55 21 80 46 113 142 82 226l286 165-32 56-286-165c-57 68-157 88-237 42-19-12-36-26-50-42-127 72-254 145-382 217 8 21 13 43 13 67 0 92-67 168-155 184v330h-64v-330c-88-16-155.0001-92-155.0001-184 0-24 5-46 12.0001-67l-381.00032-217c-14 16-31 30-50 42-80 46-180 26-237-42l-285.99999 165-32-56 285.99999-165c-31-84 2-180 82-226 18-10 36-17 55-21v-442c-19-4-37-11-55-21-80-46-113-142-82-226l-285.99999-165 32-56 285.99999 165c57-68 157-88 237-42 19 12 36 26 50 42zm1080.00032 992c-18-50-15-108 14-157 30-52 81-84 136-92v-438c-55-8-106-40-136-92-29-49-32-107-14-157l-382-218c-35 40-85 65-142 65s-107-25-142-65l-382.00032 218c18 50 15 108-14 157-30 52-81 84-136 92v438c55 8 106 40 136 92 29 49 32 107 14 157l382.00032 218c35-40 85-65 142-65s107 25 142 65z" transform="matrix(0.01462,0.00844,-0.01462,0.00844,318.4,521.68)" fill="#173c35"/><polygon points="-55.8,76.0 6.6,112.0 -55.8,148.0 -118.1,112.0" fill="#397468"/><polygon points="-55.8,148.0 -55.8,220.0 -118.1,184.0 -118.1,112.0" fill="#12211e"/><polygon points="6.6,112.0 6.6,184.0 -55.8,220.0 -55.8,148.0" fill="#1d3a33"/><path d="m771.67168 798 381.00032-217c-7.0001-21-12.0001-43-12.0001-67 0-92 67.0001-168 155.0001-184v-330h64v330c88 16 155 92 155 184 0 24-5 46-13 67l382 217c14-16 31-30 50-42 80-46 180-26 237 42l286-165 32 56-286 165c31 84-2 180-82 226-18 10-36 17-55 21v442c19 4 37 11 55 21 80 46 113 142 82 226l286 165-32 56-286-165c-57 68-157 88-237 42-19-12-36-26-50-42-127 72-254 145-382 217 8 21 13 43 13 67 0 92-67 168-155 184v330h-64v-330c-88-16-155.0001-92-155.0001-184 0-24 5-46 12.0001-67l-381.00032-217c-14 16-31 30-50 42-80 46-180 26-237-42l-285.99999 165-32-56 285.99999-165c-31-84 2-180 82-226 18-10 36-17 55-21v-442c-19-4-37-11-55-21-80-46-113-142-82-226l-285.99999-165 32-56 285.99999 165c57-68 157-88 237-42 19 12 36 26 50 42zm1080.00032 992c-18-50-15-108 14-157 30-52 81-84 136-92v-438c-55-8-106-40-136-92-29-49-32-107-14-157l-382-218c-35 40-85 65-142 65s-107-25-142-65l-382.00032 218c18 50 15 108-14 157-30 52-81 84-136 92v438c55 8 106 40 136 92 29 49 32 107 14 157l382.00032 218c35-40 85-65 142-65s107 25 142 65z" transform="matrix(0.01462,0.00844,-0.01462,0.00844,-55.8,89.68)" fill="#173c35"/><polygon points="-55.8,292.0 6.6,328.0 -55.8,364.0 -118.1,328.0" fill="#397468"/><polygon points="-55.8,364.0 -55.8,436.0 -118.1,400.0 -118.1,328.0" fill="#12211e"/><polygon points="6.6,328.0 6.6,400.0 -55.8,436.0 -55.8,364.0" fill="#1d3a33"/><path d="m771.67168 798 381.00032-217c-7.0001-21-12.0001-43-12.0001-67 0-92 67.0001-168 155.0001-184v-330h64v330c88 16 155 92 155 184 0 24-5 46-13 67l382 217c14-16 31-30 50-42 80-46 180-26 237 42l286-165 32 56-286 165c31 84-2 180-82 226-18 10-36 17-55 21v442c19 4 37 11 55 21 80 46 113 142 82 226l286 165-32 56-286-165c-57 68-157 88-237 42-19-12-36-26-50-42-127 72-254 145-382 217 8 21 13 43 13 67 0 92-67 168-155 184v330h-64v-330c-88-16-155.0001-92-155.0001-184 0-24 5-46 12.0001-67l-381.00032-217c-14 16-31 30-50 42-80 46-180 26-237-42l-285.99999 165-32-56 285.99999-165c-31-84 2-180 82-226 18-10 36-17 55-21v-442c-19-4-37-11-55-21-80-46-113-142-82-226l-285.99999-165 32-56 285.99999 165c57-68 157-88 237-42 19 12 36 26 50 42zm1080.00032 992c-18-50-15-108 14-157 30-52 81-84 136-92v-438c-55-8-106-40-136-92-29-49-32-107-14-157l-382-218c-35 40-85 65-142 65s-107-25-142-65l-382.00032 218c18 50 15 108-14 157-30 52-81 84-136 92v438c55 8 106 40 136 92 29 49 32 107 14 157l382.00032 218c35-40 85-65 142-65s107 25 142 65z" transform="matrix(0.01462,0.00844,-0.01462,0.00844,-55.8,305.68)" fill="#173c35"/><polygon points="505.4,184.0 567.8,220.0 505.4,256.0 443.1,220.0" fill="#489283"/><polygon points="505.4,256.0 505.4,328.0 443.1,292.0 443.1,220.0" fill="#182c28"/><polygon points="567.8,220.0 567.8,292.0 505.4,328.0 505.4,256.0" fill="#274e45"/><path d="m771.67168 798 381.00032-217c-7.0001-21-12.0001-43-12.0001-67 0-92 67.0001-168 155.0001-184v-330h64v330c88 16 155 92 155 184 0 24-5 46-13 67l382 217c14-16 31-30 50-42 80-46 180-26 237 42l286-165 32 56-286 165c31 84-2 180-82 226-18 10-36 17-55 21v442c19 4 37 11 55 21 80 46 113 142 82 226l286 165-32 56-286-165c-57 68-157 88-237 42-19-12-36-26-50-42-127 72-254 145-382 217 8 21 13 43 13 67 0 92-67 168-155 184v330h-64v-330c-88-16-155.0001-92-155.0001-184 0-24 5-46 12.0001-67l-381.00032-217c-14 16-31 30-50 42-80 46-180 26-237-42l-285.99999 165-32-56 285.99999-165c-31-84 2-180 82-226 18-10 36-17 55-21v-442c-19-4-37-11-55-21-80-46-113-142-82-226l-285.99999-165 32-56 285.99999 165c57-68 157-88 237-42 19 12 36 26 50 42zm1080.00032 992c-18-50-15-108 14-157 30-52 81-84 136-92v-438c-55-8-106-40-136-92-29-49-32-107-14-157l-382-218c-35 40-85 65-142 65s-107-25-142-65l-382.00032 218c18 50 15 108-14 157-30 52-81 84-136 92v438c55 8 106 40 136 92 29 49 32 107 14 157l382.00032 218c35-40 85-65 142-65s107 25 142 65z" transform="matrix(0.01462,0.00844,-0.01462,0.00844,505.4,197.68)" fill="#1d4b42"/><polygon points="131.3,-32.0 193.6,4.0 131.3,40.0 68.9,4.0" fill="#489283"/><polygon points="131.3,40.0 131.3,112.0 68.9,76.0 68.9,4.0" fill="#182c28"/><polygon points="193.6,4.0 193.6,76.0 131.3,112.0 131.3,40.0" fill="#274e45"/><path d="m771.67168 798 381.00032-217c-7.0001-21-12.0001-43-12.0001-67 0-92 67.0001-168 155.0001-184v-330h64v330c88 16 155 92 155 184 0 24-5 46-13 67l382 217c14-16 31-30 50-42 80-46 180-26 237 42l286-165 32 56-286 165c31 84-2 180-82 226-18 10-36 17-55 21v442c19 4 37 11 55 21 80 46 113 142 82 226l286 165-32 56-286-165c-57 68-157 88-237 42-19-12-36-26-50-42-127 72-254 145-382 217 8 21 13 43 13 67 0 92-67 168-155 184v330h-64v-330c-88-16-155.0001-92-155.0001-184 0-24 5-46 12.0001-67l-381.00032-217c-14 16-31 30-50 42-80 46-180 26-237-42l-285.99999 165-32-56 285.99999-165c-31-84 2-180 82-226 18-10 36-17 55-21v-442c-19-4-37-11-55-21-80-46-113-142-82-226l-285.99999-165 32-56 285.99999 165c57-68 157-88 237-42 19 12 36 26 50 42zm1080.00032 992c-18-50-15-108 14-157 30-52 81-84 136-92v-438c-55-8-106-40-136-92-29-49-32-107-14-157l-382-218c-35 40-85 65-142 65s-107-25-142-65l-382.00032 218c18 50 15 108-14 157-30 52-81 84-136 92v438c55 8 106 40 136 92 29 49 32 107 14 157l382.00032 218c35-40 85-65 142-65s107 25 142 65z" transform="matrix(0.01462,0.00844,-0.01462,0.00844,131.3,-18.32)" fill="#1d4b42"/><polygon points="380.7,-32.0 443.1,4.0 380.7,40.0 318.4,4.0" fill="#489283"/><polygon points="380.7,40.0 380.7,112.0 318.4,76.0 318.4,4.0" fill="#182c28"/><polygon points="443.1,4.0 443.1,76.0 380.7,112.0 380.7,40.0" fill="#274e45"/><path d="m771.67168 798 381.00032-217c-7.0001-21-12.0001-43-12.0001-67 0-92 67.0001-168 155.0001-184v-330h64v330c88 16 155 92 155 184 0 24-5 46-13 67l382 217c14-16 31-30 50-42 80-46 180-26 237 42l286-165 32 56-286 165c31 84-2 180-82 226-18 10-36 17-55 21v442c19 4 37 11 55 21 80 46 113 142 82 226l286 165-32 56-286-165c-57 68-157 88-237 42-19-12-36-26-50-42-127 72-254 145-382 217 8 21 13 43 13 67 0 92-67 168-155 184v330h-64v-330c-88-16-155.0001-92-155.0001-184 0-24 5-46 12.0001-67l-381.00032-217c-14 16-31 30-50 42-80 46-180 26-237-42l-285.99999 165-32-56 285.99999-165c-31-84 2-180 82-226 18-10 36-17 55-21v-442c-19-4-37-11-55-21-80-46-113-142-82-226l-285.99999-165 32-56 285.99999 165c57-68 157-88 237-42 19 12 36 26 50 42zm1080.00032 992c-18-50-15-108 14-157 30-52 81-84 136-92v-438c-55-8-106-40-136-92-29-49-32-107-14-157l-382-218c-35 40-85 65-142 65s-107-25-142-65l-382.00032 218c18 50 15 108-14 157-30 52-81 84-136 92v438c55 8 106 40 136 92 29 49 32 107 14 157l382.00032 218c35-40 85-65 142-65s107 25 142 65z" transform="matrix(0.01462,0.00844,-0.01462,0.00844,380.7,-18.32)" fill="#1d4b42"/><polygon points="6.6,184.0 68.9,220.0 6.6,256.0 -55.8,220.0" fill="#489283"/><polygon points="6.6,256.0 6.6,328.0 -55.8,292.0 -55.8,220.0" fill="#182c28"/><polygon points="68.9,220.0 68.9,292.0 6.6,328.0 6.6,256.0" fill="#274e45"/><path d="m771.67168 798 381.00032-217c-7.0001-21-12.0001-43-12.0001-67 0-92 67.0001-168 155.0001-184v-330h64v330c88 16 155 92 155 184 0 24-5 46-13 67l382 217c14-16 31-30 50-42 80-46 180-26 237 42l286-165 32 56-286 165c31 84-2 180-82 226-18 10-36 17-55 21v442c19 4 37 11 55 21 80 46 113 142 82 226l286 165-32 56-286-165c-57 68-157 88-237 42-19-12-36-26-50-42-127 72-254 145-382 217 8 21 13 43 13 67 0 92-67 168-155 184v330h-64v-330c-88-16-155.0001-92-155.0001-184 0-24 5-46 12.0001-67l-381.00032-217c-14 16-31 30-50 42-80 46-180 26-237-42l-285.99999 165-32-56 285.99999-165c-31-84 2-180 82-226 18-10 36-17 55-21v-442c-19-4-37-11-55-21-80-46-113-142-82-226l-285.99999-165 32-56 285.99999 165c57-68 157-88 237-42 19 12 36 26 50 42zm1080.00032 992c-18-50-15-108 14-157 30-52 81-84 136-92v-438c-55-8-106-40-136-92-29-49-32-107-14-157l-382-218c-35 40-85 65-142 65s-107-25-142-65l-382.00032 218c18 50 15 108-14 157-30 52-81 84-136 92v438c55 8 106 40 136 92 29 49 32 107 14 157l382.00032 218c35-40 85-65 142-65s107 25 142 65z" transform="matrix(0.01462,0.00844,-0.01462,0.00844,6.6,197.68)" fill="#1d4b42"/><polygon points="131.3,400.0 193.6,436.0 131.3,472.0 68.9,436.0" fill="#489283"/><polygon points="131.3,472.0 131.3,544.0 68.9,508.0 68.9,436.0" fill="#182c28"/><polygon points="193.6,436.0 193.6,508.0 131.3,544.0 131.3,472.0" fill="#274e45"/><path d="m771.67168 798 381.00032-217c-7.0001-21-12.0001-43-12.0001-67 0-92 67.0001-168 155.0001-184v-330h64v330c88 16 155 92 155 184 0 24-5 46-13 67l382 217c14-16 31-30 50-42 80-46 180-26 237 42l286-165 32 56-286 165c31 84-2 180-82 226-18 10-36 17-55 21v442c19 4 37 11 55 21 80 46 113 142 82 226l286 165-32 56-286-165c-57 68-157 88-237 42-19-12-36-26-50-42-127 72-254 145-382 217 8 21 13 43 13 67 0 92-67 168-155 184v330h-64v-330c-88-16-155.0001-92-155.0001-184 0-24 5-46 12.0001-67l-381.00032-217c-14 16-31 30-50 42-80 46-180 26-237-42l-285.99999 165-32-56 285.99999-165c-31-84 2-180 82-226 18-10 36-17 55-21v-442c-19-4-37-11-55-21-80-46-113-142-82-226l-285.99999-165 32-56 285.99999 165c57-68 157-88 237-42 19 12 36 26 50 42zm1080.00032 992c-18-50-15-108 14-157 30-52 81-84 136-92v-438c-55-8-106-40-136-92-29-49-32-107-14-157l-382-218c-35 40-85 65-142 65s-107-25-142-65l-382.00032 218c18 50 15 108-14 157-30 52-81 84-136 92v438c55 8 106 40 136 92 29 49 32 107 14 157l382.00032 218c35-40 85-65 142-65s107 25 142 65z" transform="matrix(0.01462,0.00844,-0.01462,0.00844,131.3,413.68)" fill="#1d4b42"/><polygon points="380.7,400.0 443.1,436.0 380.7,472.0 318.4,436.0" fill="#489283"/><polygon points="380.7,472.0 380.7,544.0 318.4,508.0 318.4,436.0" fill="#182c28"/><polygon points="443.1,436.0 443.1,508.0 380.7,544.0 380.7,472.0" fill="#274e45"/><path d="m771.67168 798 381.00032-217c-7.0001-21-12.0001-43-12.0001-67 0-92 67.0001-168 155.0001-184v-330h64v330c88 16 155 92 155 184 0 24-5 46-13 67l382 217c14-16 31-30 50-42 80-46 180-26 237 42l286-165 32 56-286 165c31 84-2 180-82 226-18 10-36 17-55 21v442c19 4 37 11 55 21 80 46 113 142 82 226l286 165-32 56-286-165c-57 68-157 88-237 42-19-12-36-26-50-42-127 72-254 145-382 217 8 21 13 43 13 67 0 92-67 168-155 184v330h-64v-330c-88-16-155.0001-92-155.0001-184 0-24 5-46 12.0001-67l-381.00032-217c-14 16-31 30-50 42-80 46-180 26-237-42l-285.99999 165-32-56 285.99999-165c-31-84 2-180 82-226 18-10 36-17 55-21v-442c-19-4-37-11-55-21-80-46-113-142-82-226l-285.99999-165 32-56 285.99999 165c57-68 157-88 237-42 19 12 36 26 50 42zm1080.00032 992c-18-50-15-108 14-157 30-52 81-84 136-92v-438c-55-8-106-40-136-92-29-49-32-107-14-157l-382-218c-35 40-85 65-142 65s-107-25-142-65l-382.00032 218c18 50 15 108-14 157-30 52-81 84-136 92v438c55 8 106 40 136 92 29 49 32 107 14 157l382.00032 218c35-40 85-65 142-65s107 25 142 65z" transform="matrix(0.01462,0.00844,-0.01462,0.00844,380.7,413.68)" fill="#1d4b42"/><polygon points="256.0,-32.0 318.4,4.0 256.0,40.0 193.6,4.0" fill="#52a695"/><polygon points="256.0,40.0 256.0,112.0 193.6,76.0 193.6,4.0" fill="#1c342f"/><polygon points="318.4,4.0 318.4,76.0 256.0,112.0 256.0,40.0" fill="#2e5b50"/><path d="m771.67168 798 381.00032-217c-7.0001-21-12.0001-43-12.0001-67 0-92 67.0001-168 155.0001-184v-330h64v330c88 16 155 92 155 184 0 24-5 46-13 67l382 217c14-16 31-30 50-42 80-46 180-26 237 42l286-165 32 56-286 165c31 84-2 180-82 226-18 10-36 17-55 21v442c19 4 37 11 55 21 80 46 113 142 82 226l286 165-32 56-286-165c-57 68-157 88-237 42-19-12-36-26-50-42-127 72-254 145-382 217 8 21 13 43 13 67 0 92-67 168-155 184v330h-64v-330c-88-16-155.0001-92-155.0001-184 0-24 5-46 12.0001-67l-381.00032-217c-14 16-31 30-50 42-80 46-180 26-237-42l-285.99999 165-32-56 285.99999-165c-31-84 2-180 82-226 18-10 36-17 55-21v-442c-19-4-37-11-55-21-80-46-113-142-82-226l-285.99999-165 32-56 285.99999 165c57-68 157-88 237-42 19 12 36 26 50 42zm1080.00032 992c-18-50-15-108 14-157 30-52 81-84 136-92v-438c-55-8-106-40-136-92-29-49-32-107-14-157l-382-218c-35 40-85 65-142 65s-107-25-142-65l-382.00032 218c18 50 15 108-14 157-30 52-81 84-136 92v438c55 8 106 40 136 92 29 49 32 107 14 157l382.00032 218c35-40 85-65 142-65s107 25 142 65z" transform="matrix(0.01462,0.00844,-0.01462,0.00844,256.0,-18.32)" fill="#21564b"/><polygon points="68.9,76.0 131.3,112.0 68.9,148.0 6.6,112.0" fill="#52a695"/><polygon points="68.9,148.0 68.9,220.0 6.6,184.0 6.6,112.0" fill="#1c342f"/><polygon points="131.3,112.0 131.3,184.0 68.9,220.0 68.9,148.0" fill="#2e5b50"/><path d="m771.67168 798 381.00032-217c-7.0001-21-12.0001-43-12.0001-67 0-92 67.0001-168 155.0001-184v-330h64v330c88 16 155 92 155 184 0 24-5 46-13 67l382 217c14-16 31-30 50-42 80-46 180-26 237 42l286-165 32 56-286 165c31 84-2 180-82 226-18 10-36 17-55 21v442c19 4 37 11 55 21 80 46 113 142 82 226l286 165-32 56-286-165c-57 68-157 88-237 42-19-12-36-26-50-42-127 72-254 145-382 217 8 21 13 43 13 67 0 92-67 168-155 184v330h-64v-330c-88-16-155.0001-92-155.0001-184 0-24 5-46 12.0001-67l-381.00032-217c-14 16-31 30-50 42-80 46-180 26-237-42l-285.99999 165-32-56 285.99999-165c-31-84 2-180 82-226 18-10 36-17 55-21v-442c-19-4-37-11-55-21-80-46-113-142-82-226l-285.99999-165 32-56 285.99999 165c57-68 157-88 237-42 19 12 36 26 50 42zm1080.00032 992c-18-50-15-108 14-157 30-52 81-84 136-92v-438c-55-8-106-40-136-92-29-49-32-107-14-157l-382-218c-35 40-85 65-142 65s-107-25-142-65l-382.00032 218c18 50 15 108-14 157-30 52-81 84-136 92v438c55 8 106 40 136 92 29 49 32 107 14 157l382.00032 218c35-40 85-65 142-65s107 25 142 65z" transform="matrix(0.01462,0.00844,-0.01462,0.00844,68.9,89.68)" fill="#21564b"/><polygon points="443.1,76.0 505.4,112.0 443.1,148.0 380.7,112.0" fill="#52a695"/><polygon points="443.1,148.0 443.1,220.0 380.7,184.0 380.7,112.0" fill="#1c342f"/><polygon points="505.4,112.0 505.4,184.0 443.1,220.0 443.1,148.0" fill="#2e5b50"/><path d="m771.67168 798 381.00032-217c-7.0001-21-12.0001-43-12.0001-67 0-92 67.0001-168 155.0001-184v-330h64v330c88 16 155 92 155 184 0 24-5 46-13 67l382 217c14-16 31-30 50-42 80-46 180-26 237 42l286-165 32 56-286 165c31 84-2 180-82 226-18 10-36 17-55 21v442c19 4 37 11 55 21 80 46 113 142 82 226l286 165-32 56-286-165c-57 68-157 88-237 42-19-12-36-26-50-42-127 72-254 145-382 217 8 21 13 43 13 67 0 92-67 168-155 184v330h-64v-330c-88-16-155.0001-92-155.0001-184 0-24 5-46 12.0001-67l-381.00032-217c-14 16-31 30-50 42-80 46-180 26-237-42l-285.99999 165-32-56 285.99999-165c-31-84 2-180 82-226 18-10 36-17 55-21v-442c-19-4-37-11-55-21-80-46-113-142-82-226l-285.99999-165 32-56 285.99999 165c57-68 157-88 237-42 19 12 36 26 50 42zm1080.00032 992c-18-50-15-108 14-157 30-52 81-84 136-92v-438c-55-8-106-40-136-92-29-49-32-107-14-157l-382-218c-35 40-85 65-142 65s-107-25-142-65l-382.00032 218c18 50 15 108-14 157-30 52-81 84-136 92v438c55 8 106 40 136 92 29 49 32 107 14 157l382.00032 218c35-40 85-65 142-65s107 25 142 65z" transform="matrix(0.01462,0.00844,-0.01462,0.00844,443.1,89.68)" fill="#21564b"/><polygon points="68.9,292.0 131.3,328.0 68.9,364.0 6.6,328.0" fill="#52a695"/><polygon points="68.9,364.0 68.9,436.0 6.6,400.0 6.6,328.0" fill="#1c342f"/><polygon points="131.3,328.0 131.3,400.0 68.9,436.0 68.9,364.0" fill="#2e5b50"/><path d="m771.67168 798 381.00032-217c-7.0001-21-12.0001-43-12.0001-67 0-92 67.0001-168 155.0001-184v-330h64v330c88 16 155 92 155 184 0 24-5 46-13 67l382 217c14-16 31-30 50-42 80-46 180-26 237 42l286-165 32 56-286 165c31 84-2 180-82 226-18 10-36 17-55 21v442c19 4 37 11 55 21 80 46 113 142 82 226l286 165-32 56-286-165c-57 68-157 88-237 42-19-12-36-26-50-42-127 72-254 145-382 217 8 21 13 43 13 67 0 92-67 168-155 184v330h-64v-330c-88-16-155.0001-92-155.0001-184 0-24 5-46 12.0001-67l-381.00032-217c-14 16-31 30-50 42-80 46-180 26-237-42l-285.99999 165-32-56 285.99999-165c-31-84 2-180 82-226 18-10 36-17 55-21v-442c-19-4-37-11-55-21-80-46-113-142-82-226l-285.99999-165 32-56 285.99999 165c57-68 157-88 237-42 19 12 36 26 50 42zm1080.00032 992c-18-50-15-108 14-157 30-52 81-84 136-92v-438c-55-8-106-40-136-92-29-49-32-107-14-157l-382-218c-35 40-85 65-142 65s-107-25-142-65l-382.00032 218c18 50 15 108-14 157-30 52-81 84-136 92v438c55 8 106 40 136 92 29 49 32 107 14 157l382.00032 218c35-40 85-65 142-65s107 25 142 65z" transform="matrix(0.01462,0.00844,-0.01462,0.00844,68.9,305.68)" fill="#21564b"/><polygon points="443.1,292.0 505.4,328.0 443.1,364.0 380.7,328.0" fill="#52a695"/><polygon points="443.1,364.0 443.1,436.0 380.7,400.0 380.7,328.0" fill="#1c342f"/><polygon points="505.4,328.0 505.4,400.0 443.1,436.0 443.1,364.0" fill="#2e5b50"/><path d="m771.67168 798 381.00032-217c-7.0001-21-12.0001-43-12.0001-67 0-92 67.0001-168 155.0001-184v-330h64v330c88 16 155 92 155 184 0 24-5 46-13 67l382 217c14-16 31-30 50-42 80-46 180-26 237 42l286-165 32 56-286 165c31 84-2 180-82 226-18 10-36 17-55 21v442c19 4 37 11 55 21 80 46 113 142 82 226l286 165-32 56-286-165c-57 68-157 88-237 42-19-12-36-26-50-42-127 72-254 145-382 217 8 21 13 43 13 67 0 92-67 168-155 184v330h-64v-330c-88-16-155.0001-92-155.0001-184 0-24 5-46 12.0001-67l-381.00032-217c-14 16-31 30-50 42-80 46-180 26-237-42l-285.99999 165-32-56 285.99999-165c-31-84 2-180 82-226 18-10 36-17 55-21v-442c-19-4-37-11-55-21-80-46-113-142-82-226l-285.99999-165 32-56 285.99999 165c57-68 157-88 237-42 19 12 36 26 50 42zm1080.00032 992c-18-50-15-108 14-157 30-52 81-84 136-92v-438c-55-8-106-40-136-92-29-49-32-107-14-157l-382-218c-35 40-85 65-142 65s-107-25-142-65l-382.00032 218c18 50 15 108-14 157-30 52-81 84-136 92v438c55 8 106 40 136 92 29 49 32 107 14 157l382.00032 218c35-40 85-65 142-65s107 25 142 65z" transform="matrix(0.01462,0.00844,-0.01462,0.00844,443.1,305.68)" fill="#21564b"/><polygon points="256.0,400.0 318.4,436.0 256.0,472.0 193.6,436.0" fill="#52a695"/><polygon points="256.0,472.0 256.0,544.0 193.6,508.0 193.6,436.0" fill="#1c342f"/><polygon points="318.4,436.0 318.4,508.0 256.0,544.0 256.0,472.0" fill="#2e5b50"/><path d="m771.67168 798 381.00032-217c-7.0001-21-12.0001-43-12.0001-67 0-92 67.0001-168 155.0001-184v-330h64v330c88 16 155 92 155 184 0 24-5 46-13 67l382 217c14-16 31-30 50-42 80-46 180-26 237 42l286-165 32 56-286 165c31 84-2 180-82 226-18 10-36 17-55 21v442c19 4 37 11 55 21 80 46 113 142 82 226l286 165-32 56-286-165c-57 68-157 88-237 42-19-12-36-26-50-42-127 72-254 145-382 217 8 21 13 43 13 67 0 92-67 168-155 184v330h-64v-330c-88-16-155.0001-92-155.0001-184 0-24 5-46 12.0001-67l-381.00032-217c-14 16-31 30-50 42-80 46-180 26-237-42l-285.99999 165-32-56 285.99999-165c-31-84 2-180 82-226 18-10 36-17 55-21v-442c-19-4-37-11-55-21-80-46-113-142-82-226l-285.99999-165 32-56 285.99999 165c57-68 157-88 237-42 19 12 36 26 50 42zm1080.00032 992c-18-50-15-108 14-157 30-52 81-84 136-92v-438c-55-8-106-40-136-92-29-49-32-107-14-157l-382-218c-35 40-85 65-142 65s-107-25-142-65l-382.00032 218c18 50 15 108-14 157-30 52-81 84-136 92v438c55 8 106 40 136 92 29 49 32 107 14 157l382.00032 218c35-40 85-65 142-65s107 25 142 65z" transform="matrix(0.01462,0.00844,-0.01462,0.00844,256.0,413.68)" fill="#21564b"/><polygon points="131.3,184.0 193.6,220.0 131.3,256.0 68.9,220.0" fill="#85c3b7"/><polygon points="131.3,256.0 131.3,328.0 68.9,292.0 68.9,220.0" fill="#274841"/><polygon points="193.6,220.0 193.6,292.0 131.3,328.0 131.3,256.0" fill="#407f70"/><path d="m771.67168 798 381.00032-217c-7.0001-21-12.0001-43-12.0001-67 0-92 67.0001-168 155.0001-184v-330h64v330c88 16 155 92 155 184 0 24-5 46-13 67l382 217c14-16 31-30 50-42 80-46 180-26 237 42l286-165 32 56-286 165c31 84-2 180-82 226-18 10-36 17-55 21v442c19 4 37 11 55 21 80 46 113 142 82 226l286 165-32 56-286-165c-57 68-157 88-237 42-19-12-36-26-50-42-127 72-254 145-382 217 8 21 13 43 13 67 0 92-67 168-155 184v330h-64v-330c-88-16-155.0001-92-155.0001-184 0-24 5-46 12.0001-67l-381.00032-217c-14 16-31 30-50 42-80 46-180 26-237-42l-285.99999 165-32-56 285.99999-165c-31-84 2-180 82-226 18-10 36-17 55-21v-442c-19-4-37-11-55-21-80-46-113-142-82-226l-285.99999-165 32-56 285.99999 165c57-68 157-88 237-42 19 12 36 26 50 42zm1080.00032 992c-18-50-15-108 14-157 30-52 81-84 136-92v-438c-55-8-106-40-136-92-29-49-32-107-14-157l-382-218c-35 40-85 65-142 65s-107-25-142-65l-382.00032 218c18 50 15 108-14 157-30 52-81 84-136 92v438c55 8 106 40 136 92 29 49 32 107 14 157l382.00032 218c35-40 85-65 142-65s107 25 142 65z" transform="matrix(0.01462,0.00844,-0.01462,0.00844,131.3,197.68)" fill="#2c7164"/><polygon points="380.7,184.0 443.1,220.0 380.7,256.0 318.4,220.0" fill="#85c3b7"/><polygon points="380.7,256.0 380.7,328.0 318.4,292.0 318.4,220.0" fill="#274841"/><polygon points="443.1,220.0 443.1,292.0 380.7,328.0 380.7,256.0" fill="#407f70"/><path d="m771.67168 798 381.00032-217c-7.0001-21-12.0001-43-12.0001-67 0-92 67.0001-168 155.0001-184v-330h64v330c88 16 155 92 155 184 0 24-5 46-13 67l382 217c14-16 31-30 50-42 80-46 180-26 237 42l286-165 32 56-286 165c31 84-2 180-82 226-18 10-36 17-55 21v442c19 4 37 11 55 21 80 46 113 142 82 226l286 165-32 56-286-165c-57 68-157 88-237 42-19-12-36-26-50-42-127 72-254 145-382 217 8 21 13 43 13 67 0 92-67 168-155 184v330h-64v-330c-88-16-155.0001-92-155.0001-184 0-24 5-46 12.0001-67l-381.00032-217c-14 16-31 30-50 42-80 46-180 26-237-42l-285.99999 165-32-56 285.99999-165c-31-84 2-180 82-226 18-10 36-17 55-21v-442c-19-4-37-11-55-21-80-46-113-142-82-226l-285.99999-165 32-56 285.99999 165c57-68 157-88 237-42 19 12 36 26 50 42zm1080.00032 992c-18-50-15-108 14-157 30-52 81-84 136-92v-438c-55-8-106-40-136-92-29-49-32-107-14-157l-382-218c-35 40-85 65-142 65s-107-25-142-65l-382.00032 218c18 50 15 108-14 157-30 52-81 84-136 92v438c55 8 106 40 136 92 29 49 32 107 14 157l382.00032 218c35-40 85-65 142-65s107 25 142 65z" transform="matrix(0.01462,0.00844,-0.01462,0.00844,380.7,197.68)" fill="#2c7164"/><polygon points="193.6,76.0 256.0,112.0 193.6,148.0 131.3,112.0" fill="#85c3b7"/><polygon points="193.6,148.0 193.6,220.0 131.3,184.0 131.3,112.0" fill="#274841"/><polygon points="256.0,112.0 256.0,184.0 193.6,220.0 193.6,148.0" fill="#407f70"/><path d="m771.67168 798 381.00032-217c-7.0001-21-12.0001-43-12.0001-67 0-92 67.0001-168 155.0001-184v-330h64v330c88 16 155 92 155 184 0 24-5 46-13 67l382 217c14-16 31-30 50-42 80-46 180-26 237 42l286-165 32 56-286 165c31 84-2 180-82 226-18 10-36 17-55 21v442c19 4 37 11 55 21 80 46 113 142 82 226l286 165-32 56-286-165c-57 68-157 88-237 42-19-12-36-26-50-42-127 72-254 145-382 217 8 21 13 43 13 67 0 92-67 168-155 184v330h-64v-330c-88-16-155.0001-92-155.0001-184 0-24 5-46 12.0001-67l-381.00032-217c-14 16-31 30-50 42-80 46-180 26-237-42l-285.99999 165-32-56 285.99999-165c-31-84 2-180 82-226 18-10 36-17 55-21v-442c-19-4-37-11-55-21-80-46-113-142-82-226l-285.99999-165 32-56 285.99999 165c57-68 157-88 237-42 19 12 36 26 50 42zm1080.00032 992c-18-50-15-108 14-157 30-52 81-84 136-92v-438c-55-8-106-40-136-92-29-49-32-107-14-157l-382-218c-35 40-85 65-142 65s-107-25-142-65l-382.00032 218c18 50 15 108-14 157-30 52-81 84-136 92v438c55 8 106 40 136 92 29 49 32 107 14 157l382.00032 218c35-40 85-65 142-65s107 25 142 65z" transform="matrix(0.01462,0.00844,-0.01462,0.00844,193.6,89.68)" fill="#2c7164"/><polygon points="318.4,76.0 380.7,112.0 318.4,148.0 256.0,112.0" fill="#85c3b7"/><polygon points="318.4,148.0 318.4,220.0 256.0,184.0 256.0,112.0" fill="#274841"/><polygon points="380.7,112.0 380.7,184.0 318.4,220.0 318.4,148.0" fill="#407f70"/><path d="m771.67168 798 381.00032-217c-7.0001-21-12.0001-43-12.0001-67 0-92 67.0001-168 155.0001-184v-330h64v330c88 16 155 92 155 184 0 24-5 46-13 67l382 217c14-16 31-30 50-42 80-46 180-26 237 42l286-165 32 56-286 165c31 84-2 180-82 226-18 10-36 17-55 21v442c19 4 37 11 55 21 80 46 113 142 82 226l286 165-32 56-286-165c-57 68-157 88-237 42-19-12-36-26-50-42-127 72-254 145-382 217 8 21 13 43 13 67 0 92-67 168-155 184v330h-64v-330c-88-16-155.0001-92-155.0001-184 0-24 5-46 12.0001-67l-381.00032-217c-14 16-31 30-50 42-80 46-180 26-237-42l-285.99999 165-32-56 285.99999-165c-31-84 2-180 82-226 18-10 36-17 55-21v-442c-19-4-37-11-55-21-80-46-113-142-82-226l-285.99999-165 32-56 285.99999 165c57-68 157-88 237-42 19 12 36 26 50 42zm1080.00032 992c-18-50-15-108 14-157 30-52 81-84 136-92v-438c-55-8-106-40-136-92-29-49-32-107-14-157l-382-218c-35 40-85 65-142 65s-107-25-142-65l-382.00032 218c18 50 15 108-14 157-30 52-81 84-136 92v438c55 8 106 40 136 92 29 49 32 107 14 157l382.00032 218c35-40 85-65 142-65s107 25 142 65z" transform="matrix(0.01462,0.00844,-0.01462,0.00844,318.4,89.68)" fill="#2c7164"/><polygon points="193.6,292.0 256.0,328.0 193.6,364.0 131.3,328.0" fill="#85c3b7"/><polygon points="193.6,364.0 193.6,436.0 131.3,400.0 131.3,328.0" fill="#274841"/><polygon points="256.0,328.0 256.0,400.0 193.6,436.0 193.6,364.0" fill="#407f70"/><path d="m771.67168 798 381.00032-217c-7.0001-21-12.0001-43-12.0001-67 0-92 67.0001-168 155.0001-184v-330h64v330c88 16 155 92 155 184 0 24-5 46-13 67l382 217c14-16 31-30 50-42 80-46 180-26 237 42l286-165 32 56-286 165c31 84-2 180-82 226-18 10-36 17-55 21v442c19 4 37 11 55 21 80 46 113 142 82 226l286 165-32 56-286-165c-57 68-157 88-237 42-19-12-36-26-50-42-127 72-254 145-382 217 8 21 13 43 13 67 0 92-67 168-155 184v330h-64v-330c-88-16-155.0001-92-155.0001-184 0-24 5-46 12.0001-67l-381.00032-217c-14 16-31 30-50 42-80 46-180 26-237-42l-285.99999 165-32-56 285.99999-165c-31-84 2-180 82-226 18-10 36-17 55-21v-442c-19-4-37-11-55-21-80-46-113-142-82-226l-285.99999-165 32-56 285.99999 165c57-68 157-88 237-42 19 12 36 26 50 42zm1080.00032 992c-18-50-15-108 14-157 30-52 81-84 136-92v-438c-55-8-106-40-136-92-29-49-32-107-14-157l-382-218c-35 40-85 65-142 65s-107-25-142-65l-382.00032 218c18 50 15 108-14 157-30 52-81 84-136 92v438c55 8 106 40 136 92 29 49 32 107 14 157l382.00032 218c35-40 85-65 142-65s107 25 142 65z" transform="matrix(0.01462,0.00844,-0.01462,0.00844,193.6,305.68)" fill="#2c7164"/><polygon points="318.4,292.0 380.7,328.0 318.4,364.0 256.0,328.0" fill="#85c3b7"/><polygon points="318.4,364.0 318.4,436.0 256.0,400.0 256.0,328.0" fill="#274841"/><polygon points="380.7,328.0 380.7,400.0 318.4,436.0 318.4,364.0" fill="#407f70"/><path d="m771.67168 798 381.00032-217c-7.0001-21-12.0001-43-12.0001-67 0-92 67.0001-168 155.0001-184v-330h64v330c88 16 155 92 155 184 0 24-5 46-13 67l382 217c14-16 31-30 50-42 80-46 180-26 237 42l286-165 32 56-286 165c31 84-2 180-82 226-18 10-36 17-55 21v442c19 4 37 11 55 21 80 46 113 142 82 226l286 165-32 56-286-165c-57 68-157 88-237 42-19-12-36-26-50-42-127 72-254 145-382 217 8 21 13 43 13 67 0 92-67 168-155 184v330h-64v-330c-88-16-155.0001-92-155.0001-184 0-24 5-46 12.0001-67l-381.00032-217c-14 16-31 30-50 42-80 46-180 26-237-42l-285.99999 165-32-56 285.99999-165c-31-84 2-180 82-226 18-10 36-17 55-21v-442c-19-4-37-11-55-21-80-46-113-142-82-226l-285.99999-165 32-56 285.99999 165c57-68 157-88 237-42 19 12 36 26 50 42zm1080.00032 992c-18-50-15-108 14-157 30-52 81-84 136-92v-438c-55-8-106-40-136-92-29-49-32-107-14-157l-382-218c-35 40-85 65-142 65s-107-25-142-65l-382.00032 218c18 50 15 108-14 157-30 52-81 84-136 92v438c55 8 106 40 136 92 29 49 32 107 14 157l382.00032 218c35-40 85-65 142-65s107 25 142 65z" transform="matrix(0.01462,0.00844,-0.01462,0.00844,318.4,305.68)" fill="#2c7164"/><polygon points="256.0,184.0 318.4,220.0 256.0,256.0 193.6,220.0" fill="#cfe7e3"/><polygon points="256.0,256.0 256.0,328.0 193.6,292.0 193.6,220.0" fill="#36635a"/><polygon points="318.4,220.0 318.4,292.0 256.0,328.0 256.0,256.0" fill="#5cad9a"/><path d="m771.67168 798 381.00032-217c-7.0001-21-12.0001-43-12.0001-67 0-92 67.0001-168 155.0001-184v-330h64v330c88 16 155 92 155 184 0 24-5 46-13 67l382 217c14-16 31-30 50-42 80-46 180-26 237 42l286-165 32 56-286 165c31 84-2 180-82 226-18 10-36 17-55 21v442c19 4 37 11 55 21 80 46 113 142 82 226l286 165-32 56-286-165c-57 68-157 88-237 42-19-12-36-26-50-42-127 72-254 145-382 217 8 21 13 43 13 67 0 92-67 168-155 184v330h-64v-330c-88-16-155.0001-92-155.0001-184 0-24 5-46 12.0001-67l-381.00032-217c-14 16-31 30-50 42-80 46-180 26-237-42l-285.99999 165-32-56 285.99999-165c-31-84 2-180 82-226 18-10 36-17 55-21v-442c-19-4-37-11-55-21-80-46-113-142-82-226l-285.99999-165 32-56 285.99999 165c57-68 157-88 237-42 19 12 36 26 50 42zm1080.00032 992c-18-50-15-108 14-157 30-52 81-84 136-92v-438c-55-8-106-40-136-92-29-49-32-107-14-157l-382-218c-35 40-85 65-142 65s-107-25-142-65l-382.00032 218c18 50 15 108-14 157-30 52-81 84-136 92v438c55 8 106 40 136 92 29 49 32 107 14 157l382.00032 218c35-40 85-65 142-65s107 25 142 65z" transform="matrix(0.01462,0.00844,-0.01462,0.00844,256.0,197.68)" fill="#3b9885"/></g>
  <rect x="0" y="0" width="512" height="512" fill="url(#ic-vig)"/>
  <rect x="0" y="0" width="512" height="512" fill="url(#ic-glow)"/>
  <circle cx="356" cy="356" r="99.9" fill="url(#ic-aglow)"/><polygon points="356.0,302.0 402.8,329.0 402.8,383.0 356.0,410.0 309.2,383.0 309.2,329.0" fill="#070a0d"/><polygon points="356.0,302.0 402.8,329.0 402.8,383.0 356.0,410.0 309.2,383.0 309.2,329.0" fill="none" stroke="#9ad4c2" stroke-opacity="0.7" stroke-width="3.2" stroke-linejoin="round"/><g transform="translate(356 356) scale(0.02799) translate(-1322.04 -1322)"><path d="m771.67168 798 381.00032-217c-7.0001-21-12.0001-43-12.0001-67 0-92 67.0001-168 155.0001-184v-330h64v330c88 16 155 92 155 184 0 24-5 46-13 67l382 217c14-16 31-30 50-42 80-46 180-26 237 42l286-165 32 56-286 165c31 84-2 180-82 226-18 10-36 17-55 21v442c19 4 37 11 55 21 80 46 113 142 82 226l286 165-32 56-286-165c-57 68-157 88-237 42-19-12-36-26-50-42-127 72-254 145-382 217 8 21 13 43 13 67 0 92-67 168-155 184v330h-64v-330c-88-16-155.0001-92-155.0001-184 0-24 5-46 12.0001-67l-381.00032-217c-14 16-31 30-50 42-80 46-180 26-237-42l-285.99999 165-32-56 285.99999-165c-31-84 2-180 82-226 18-10 36-17 55-21v-442c-19-4-37-11-55-21-80-46-113-142-82-226l-285.99999-165 32-56 285.99999 165c57-68 157-88 237-42 19 12 36 26 50 42zm1080.00032 992c-18-50-15-108 14-157 30-52 81-84 136-92v-438c-55-8-106-40-136-92-29-49-32-107-14-157l-382-218c-35 40-85 65-142 65s-107-25-142-65l-382.00032 218c18 50 15 108-14 157-30 52-81 84-136 92v438c55 8 106 40 136 92 29 49 32 107 14 157l382.00032 218c35-40 85-65 142-65s107 25 142 65z" fill="#dff7ee" fill-rule="nonzero"/></g>
</svg>
